<svg id="edcYthA6Fwg1" xmlns="http://www.w3.org/2000/svg" xmlns:xlink="http://www.w3.org/1999/xlink" viewBox="0 0 1024 1024" shape-rendering="geometricPrecision" text-rendering="geometricPrecision"><g transform="matrix(.1 0 0-.1 0 1024.709143)"><path d="M4160,9790c-349-51-659-198-876-416-269-270-393-609-382-1041c3-145,4-143-55-143-66-1-173-31-264-75-125-61-220-154-281-275-60-122-75-191-70-325c6-146,47-266,126-372l23-32-23-12c-13-7-49-37-81-68-178-170-230-472-122-708c76-168,211-294,388-364c77-31,89-33,212-33c111-1,140,2,197,22c107,37,105,32,122,222c18,188,49,363,53,295c12-187,49-396,88-495c93-237,283-428,463-465c29-6,32-5,32,19c0,57-41,140-97,195-63,63-88,100-148,220-53,106-72,161-86,254-28,180,7,287,138,420c42,43,77,76,79,74s-8-28-22-58c-56-113-55-278,2-376c50-86,158-159,255-170c46-5,52-4,43,8-21,28-54,125-60,180-6,51-3,65,26,128c26,57,47,84,99,130c71,62,144,112,228,155l53,26-6-72c-6-74,12-207,40-301c16-52,11-60-54-92-105-52-277-227-334-340-76-151-102-400-57-565l20-75-27-24c-77-68-101-92-150-145-97-107-142-225-142-374c0-185,90-359,217-420c25-12,31-20,28-36-14-63-25-160-25-226c0-105,22-198,71-299c34-72,56-100,129-172c96-93,207-158,284-165c36-4,38-3,19,7-12,6-35,42-53,83-60,132-74,261-44,403c24,117,54,174,131,250c76,75,150,117,231,133c51,9,142,4,142-9c0-4-13-14-28-23-49-29-126-121-171-201-27-51-53-119-73-195-28-111-30-124-25-267c4-141,7-158,41-257c33-96,78-194,124-267c33-53,157-193,216-245c176-155,381-258,641-326c170-44,294-54,528-45c283,12,291,12,397-10c74-15,134-19,270-19c161,1,182,3,265,28c123,37,199,80,271,151c45,45,64,72,73,107c30,108-47,225-172,259-51,13-134-3-206-42-30-16-56-27-58-25s10,25,26,52c24,36,31,60,31,96c0,63-21,138-38,138s-182,106-199,127c-12,15-7,47,6,39c4-3,13,0,21,6c12,8,12,9-2,4-24-7-23-1,12,55c79,129,120,292,120,480c0,249-80,456-239,622-46,48-100,97-118,109l-35,21l59,59c32,33,76,69,98,80c64,32,75,47,75,92-1,65-37,124-110,180-39,30-55,46-40,42c114-35,283,0,371,76c104,90,135,288,78,504-49,189-61,267-64,439-2,94-1,157,2,140c6-39,20-55,48-55c31,0,35,20,35,186v142l123,4c155,6,188,18,212,82c19,50,17,119-6,168-14,32-72,58-127,58-137-1-328-121-386-243-77-165-73-494,10-922c27-139,34-309,15-357-16-42-63-67-109-58-94,18-167,44-285,100-131,62-218,89-297,91-44,1-109,16-80,18c54,5,175,143,187,214c7,48-9,67-59,67-68,0-102-25-333-242-60-57-331-231-457-295-153-76-242-97-384-91-83,3-96,7-148,38-66,40-113,99-147,185-32,83-31,227,5,435c51,302,31,449-89,655-67,116-81,220-45,338c18,59,59,128,155,262c56,77,112,203,125,277c21,119-11,238-105,394-41,68-289,284-326,284-13,0-11-9,12-70c65-167,70-262,23-410-31-98-68-160-143-242-110-119-252-193-418-219-152-23-342,17-484,101-72,43-178,141-223,207-38,56-73,156-82,231-19,174,94,344,245,368c36,6,42,4,49-16c6-16,11-19,16-12c4,7,11,12,16,12s-5-20-22-45c-18-25-35-45-40-45-19,0-7-103,18-155c28-60,69-99,142-136c69-34,177-34,252,2c160,75,201,211,147,479-41,201-50,295-44,456c6,171,31,270,97,384c42,72,135,181,184,216c67,48,214,132,266,152c175,67,303,86,585,87c225,0,248-2,370-28c328-69,587-207,834-442c128-122,238-271,358-485c155-277,292-742,248-845-17-42-56-69-87-60-29,9-80,57-125,118-29,39-40,48-62,45-43-5-38-43,19-155c88-175,136-223,224-223c38,0,52,6,85,35c21,20,50,62,67,97c52,116,44,320-21,548-167,584-465,1059-858,1369-329,260-722,427-1145,485-158,22-496,20-662-4ZM5973,5151c84-20,231-81,272-115c19-15,12-16-105-10-121,6-356-8-430-25-109-26-198-55-248-80-137-69-241-171-304-299-38-78-50-200-25-267c8-22,18-49,22-60c17-48-119,112-149,174-29,61-31,74-31,171c0,99,2,109,33,172c51,105,178,231,287,285c38,19,204,66,270,77c69,11,322-4,408-23Zm-26-449c121-46,218-137,271-252c20-41,27-76,30-141c4-77,2-93-23-147-43-95-127-152-225-152h-51l15,28c41,80,44,246,7,392-36,139-60,192-109,243l-46,47h42c23,0,63-8,89-18Zm-732-817c68-198,165-382,254-479c14-15,63-57,108-93c131-102,318-182,473-200c27-3,48-9,45-13-10-17-178-33-282-27-138,8-202,25-338,91-85,42-124,68-172,115-136,135-191,276-180,461c4,68,45,267,53,257c1-1,19-51,39-112Z"/><path d="M1250,7729c0-60-10-358-21-662-28-722-31-1433-6-1665c9-89,21-181,26-205c6-23,15-73,21-112c66-434,261-927,509-1290c293-430,640-752,1106-1028c259-154,671-316,943-372c263-54,385-68,612-69c248-1,603,24,586,41-6,7-136,23-379,48-82,8-179,20-215,26-37,6-78,12-92,14-346,57-747,191-1095,367-164,82-199,103-382,221-419,272-730,599-991,1042-94,160-231,485-277,658-14,53-30,110-36,125s-17,58-25,97c-8,38-16,75-17,80-16,49-48,275-63,455-17,206-16,665,6,1380c5,168,12,416,16,553l6,247h223c254,0,235-8,235,96v64h-345-345v-111Z"/><path d="M7570,7755v-85h238c323,0,1016-12,1022-17c3-3,9-390,14-861c7-760,6-884-9-1097-34-490-106-855-250-1275-139-407-312-732-564-1065-84-111-131-164-286-323-60-62-112-115-114-117-2-3,0-5,5-5s35,19,66,43c32,23,98,70,147,105c194,135,395,338,549,550c86,119,223,338,263,422c164,343,263,631,328,960c43,214,49,247,65,390c43,356,46,516,32,1583l-9,697h26h27v83v84l-187,6c-104,4-452,7-775,7h-588v-85Z"/><path d="M5596,7145c-122-25-265-107-332-189-43-54-66-78-108-109-50-39-65-72-42-95c16-16,23-15,124,21c217,78,291,96,460,111c36,3,62,2,62-4c0-5-33-28-72-52-40-23-86-51-103-60-16-10-53-29-80-42-28-13-57-31-64-40-20-24-152-120-184-134-15-7-61-12-102-12s-76-4-79-9c-8-13,88-99,121-108c15-4,64-7,108-8c76,0,84,2,160,44c44,24,106,61,138,83c128,84,261,115,373,87c30-8,49-19,54-33c5-12,9-17,9-12c1,12,60-65,61-78c0-5-8-2-18,7-38,35-249,18-391-31-58-20-139-87-176-147-27-44-30-56-30-134c1-96,12-125,72-192c57-63,84-73,193-74c88,0,99,2,145,30c28,17,84,64,125,106c41,41,83,80,93,86c31,17-49,15-91-3l-37-15l38,36c39,37,56,42,87,25c12-7,28-7,44,0c26,9,38-3,14-13-9-4-8-6,3-6c8-1,24,6,35,14c10,8,29,15,41,15c41,0,55,13,145,132c49,66,121,153,158,195c94,102,102,160,39,283-35,69-70,106-156,163-179,119-628,206-837,162Zm511-687c-3-8-6-5-6,6-1,11,2,17,5,13c3-3,4-12,1-19Zm-64-96c-16-67-96-171-156-206-141-82-335-65-353,30-7,38,10,70,24,47c11-17,72,26,72,50c0,17,69,97,82,97c3,0,9-16,13-36c3-20,9-33,12-30c4,4,19-5,33-19c70-67,209-25,250,76c15,35,33,28,23-9Zm-53-295c0-2-10-12-22-23l-23-19l19,23c18,21,26,27,26,19Z"/><path d="M1133,3523c-26-10,23-104,88-169c55-55,61-65,55-91-4-15-27-48-51-73-23-25-84-91-135-148-177-198-571-591-586-585-8,3-14,0-14-6c0-21-26-11-80,29-80,60-100,62-114,14-5-16,0-23,20-33c33-15,61-36,172-131c105-89,99-84,192-160c41-34,80-64,87-67s24,5,39,16c15,12,37,21,50,21c34,0,30,15-12,46-48,37-70,80-52,102c7,9,92,97,190,196l177,178l58-51c70-63,253-167,321-182c58-14,169-1,225,26c48,23,111,78,139,123c32,52,33,194,1,265-34,73-82,134-148,188-33,27-87,73-121,101-33,29-96,82-140,118-43,36-85,72-94,80-9,9-49,42-90,75s-81,68-88,78c-11,15-65,49-74,46-2,0-8-3-15-6Zm444-505c49-46,93-125,93-170c0-53-30-100-115-180-28-27-107-58-147-58-29,0-88,34-142,83l-49,44l99,104c55,57,124,130,153,162c30,31,56,57,58,57s24-19,50-42Zm-92-418c-3-5-16-10-28-9-20,1-20,2,3,9c14,4,26,8,28,9s0-3-3-9Z"/><path d="M9134,3356c-61-27-296-232-340-296-13-19-37-54-54-78-45-64-67-112-75-164-15-100,47-213,143-260c40-20,61-23,147-22c55,0,136,8,180,17c147,30,299,49,352,43c164-18,245-63,278-155c39-110-5-185-125-213-67-15-143,0-253,52-45,21-111,46-147,55-78,20-96,29-135,66-17,16-42,30-55,31-22,3-25-1-28-34-3-39,48-178,92-246c48-75,74-90,216-123c107-25,136-19,282,59c231,124,350,306,335,509-7,91-35,152-104,220-114,112-209,119-658,47-154-25-162-26-216-10-74,22-104,54-103,111c1,53,31,98,87,128c37,19,57,22,167,22h125l73-38c70-36,75-38,98-22c15,9,24,25,24,41c0,33-18,66-32,58-6-4-8-3-4,4c3,6-8,20-25,32-18,13-43,49-61,87-17,35-40,70-52,78-25,18-91,19-132,1Z"/><path d="M8390,2675c-36-25-110-75-165-112-55-36-114-77-131-92-17-14-40-33-50-42-20-16-182-102-434-232-330-169-440-229-440-241c0-20,162-173,207-195l42-21l28,36c25,34,27,42,25,118-2,44-5,88-8,97-4,15,15,29,103,75c18,10,34,16,36,13c4-4,153-306,309-624c57-116,88-192,88-213c0-40-22-85-51-106-24-16-20-39,9-55c14-8,35-1,96,30c42,22,94,46,114,53c20,8,89,39,152,69c103,50,118,61,144,102c15,25,26,48,23,51s-18-1-34-9c-15-8-48-20-72-27-41-11-45-10-73,17-40,38-114,166-249,429-62,120-134,256-160,301-47,82-47,82-25,96c78,49,161,46,212-9c40-43,80-46,94-8c8,21,6,33-9,58-11,17-34,56-51,85l-32,55l28,23c16,13,33,23,37,23c20,0,164-163,350-395c52-66,125-156,162-200c36-44,84-102,105-128c47-57,49-76,15-108-17-17-25-35-25-59c0-66,9-66,121,6c327,211,317,204,340,250c33,69,22,77-58,38-37-18-73-33-79-34-10,0-36,26-143,145-20,22-63,74-96,115-66,83-93,115-146,174-19,23-44,53-55,67s-47,57-81,95-76,89-94,114l-32,44l16,47c17,48,23,129,9,129-4,0-36-20-72-45Z"/><path d="M2074,2636c-7-19,23-83,47-99c9-7,21-25,24-39c5-20,2-29-14-37-11-6-67-57-124-114-57-56-142-138-188-182-47-44-132-125-189-180-58-55-135-129-172-164l-68-64-49,31c-59,36-109,45-124,20-17-26,7-47,187-167c123-82,341-199,352-189c2,3-14,40-35,84-61,126-65,109,51,222c57,55,117,112,134,126l31,26l114-63c237-132,269-151,269-164c0-19-68-292-81-325-16-40-57-51-132-33-34,8-66,15-70,15-14,0-3-42,13-51c8-5,57-31,108-59c88-49,170-85,344-150c70-26,79-28,93-14c31,31,11,100-32,110-49,12-49,12-6,219c13,66,58,253,99,415c41,163,74,302,74,310s5,33,12,55l12,40l6-35c5-32,7-33,17-15c6,11,13,34,17,50c6,30,6,30-141,109-265,142-384,213-475,283-58,44-94,54-104,29Zm372-311c10-8,14-15,8-15-5,0-19,7-30,15-10,8-14,15-8,15c5,0,19-7,30-15Zm-30-11c19-9,36-20,39-24c4-7-93-491-100-498-4-5-149,79-254,146l-84,54l169,169c93,93,175,169,182,169c8,0,29-7,48-16Z"/><path d="M3056,2142c-2-4-7-23-11-43-6-35-6-36,27-42c49-8,107-34,114-51c5-12-69-301-187-731-32-115-66-211-82-232-15-20-74-26-124-13-42,10-49,9-60-6-8-10-9-22-4-27c21-21,380-132,529-163c66-14,85-15,95-5s-2,25-56,75l-67,61l10,54c10,53,57,237,86,339c14,45,18,51,37,47c78-19,410-89,502-107c61-11,113-23,117-27c14-12-36-359-60-421-16-42-59-74-133-100-115-41-97-51,136-76c385-41,409-43,423-26c23,30,14,51-28,63-62,19-90,50-90,99c0,23,18,150,40,283c23,133,51,314,64,402s29,172,35,187c11,30,49,53,104,63c30,6,37,12,37,31c0,25-10,34-43,39-263,38-271,39-435,72-109,22-119,12-54-55c27-28,59-71,71-96l21-47-25-137c-14-75-28-147-31-159-5-26-36-30-94-13-19,6-130,31-247,55-323,68-306,62-299,99c15,76,101,344,119,369c14,21,25,27,41,23c11-2,38-8,59-11c36-7,37-6,37,21c0,16-4,34-8,40-4,5-56,23-117,38-60,16-122,35-137,42-14,7-75,25-134,39s-121,32-138,40c-34,17-33,17-40,7Z"/><path d="M6520,1899c-52-11-124-25-160-32-98-18-237-95-304-167-137-148-180-304-141-509c32-169,121-305,260-398c119-81,239-113,415-113c169,0,299,33,439,112c178,101,270,268,271,493c0,124-19,206-72,314-76,154-238,281-397,311-79,15-204,10-311-11Zm163-112c82-38,157-118,206-220c194-408,87-807-216-807-63,0-167,38-214,78-54,47-137,169-165,246-83,223-93,422-29,563c72,159,248,219,418,140Z"/><path d="M4680,1761c0-24,9-36,45-61c82-57,82-54,61-518-16-347-29-463-53-483-7-6-40-13-73-16-60-6-61-6-55-32c4-14,12-29,18-33c19-12,197-22,392-23h190l3,47l3,46h-45c-26-1-55,6-70,16l-26,16v168c1,123,4,172,14,185c11,15,31,17,148,17c238,0,343,29,446,123c62,58,75,93,76,212c1,89-2,104-23,140-76,126-147,171-289,185-48,5-224,14-392,20-168,5-320,13-337,16-31,5-33,3-33-25Zm567-92c153-21,203-78,211-240c6-123-20-189-89-224-43-23-232-41-265-26l-26,11l4,218c4,291,0,284,165,261Z"/></g><ellipse rx="4.150358" ry="2.517497" transform="translate(147.362852 766.139394)" stroke-width="0"/><ellipse rx="3.99439" ry="0.853565" transform="matrix(.881584 0.472027-.808245 1.509523 243.978191 792.356939)" stroke-width="0"/><ellipse rx="5.489936" ry="2.177178" transform="matrix(.77079-.637089 0.637089 0.77079 596.620209 419.239812)" stroke-width="0"/><ellipse rx="5.489936" ry="2.177178" transform="matrix(.301196-.254047-.782172-.927338 609.560429 377.69364)" stroke-width="0"/></svg>
